<svg id="Capa_1" data-name="Capa 1" xmlns="http://www.w3.org/2000/svg" viewBox="0 0 316.37 241.67"><title>Sin título-1</title><polygon points="48.94 74.53 45.11 77.42 41.34 74.53 33.87 74.53 31.25 76.72 29.99 74.53 26.17 74.53 26.17 101.56 31.25 101.56 31.25 79.18 41.24 79.18 41.24 101.56 46.31 101.56 46.31 79.18 56.31 79.18 56.31 101.56 61.38 101.56 61.38 78.11 58.58 74.53 48.94 74.53"/><polygon points="101.29 74.53 97.4 77.02 97.4 98.79 101.29 101.29 117.02 101.29 117.02 96.63 102.47 96.63 102.47 79.19 117.02 79.19 117.02 74.53 101.29 74.53"/><polygon points="124.7 62.49 124.7 101.56 129.77 101.56 129.77 79.18 142.38 79.18 142.38 101.56 147.45 101.56 147.45 78.11 144.66 74.53 129.77 74.53 129.77 74.53 129.77 62.49 124.7 62.49"/><path d="M155.39,101.56h5.07V74.8h-5.07Zm-.26-33.34h5.6V62.49h-5.6Z"/><path d="M168.67,101.56h5.08V74.8h-5.08Zm-.26-33.34H174V62.49h-5.6Z"/><polygon points="189.38 74.53 186.75 76.72 185.5 74.53 181.68 74.53 181.68 101.55 186.75 101.55 186.75 79.18 198.84 79.18 198.84 101.55 203.91 101.55 203.91 78.11 201.12 74.53 189.38 74.53"/><path d="M216.67,90.32h10.52V96.9H216.67Zm-2.46-15.79v4.66h13v6.47h-11.7l-3.89,3.59V98l3.89,3.59h8l3.72-2.2,1.53,2.2h3.54V78.11l-3.89-3.59Z"/><path d="M74.13,90.32H84.65V96.9H74.13ZM71.67,74.53v4.66h13v6.47H72.94l-3.89,3.59V98l3.89,3.59h8l3.72-2.2,1.53,2.2h3.54V78.11l-3.89-3.59Z"/><polygon points="97.4 26.18 26.17 26.18 26.17 54.91 47.42 33.66 47.42 54.91 68.67 33.66 68.67 54.91 97.4 26.18"/><path d="M32,156.19H26.17v-3h15v3H35.36v15.64H32Z"/><path d="M43.41,153.2h3.27v7a4.89,4.89,0,0,1,3.81-1.81c3.45,0,4.87,2.78,4.87,5.54v7.91H52.08v-7.5c0-1.62-.44-3-2.37-3s-3,1.67-3,3.86v6.67H43.41Z"/><path d="M57.61,165.29c0-3.43,2-6.91,6.46-6.91,4.61,0,6.1,3.71,6.1,6.65a5.24,5.24,0,0,1-.12,1.27H61a3,3,0,0,0,3.3,2.89,4,4,0,0,0,3.16-1.4l2.22,1.94a6.88,6.88,0,0,1-5.41,2.37C59.74,172.1,57.61,168.84,57.61,165.29ZM67,164c-.21-1.89-1.29-2.89-3-2.89-1.9,0-2.73,1.24-3,2.89Z"/><path d="M79.84,153.2h5.84c3.8,0,6.58,2,6.58,5.51s-2.78,5.39-6.58,5.39H83.16v7.73H79.84ZM85.68,161c2.29,0,3.26-.79,3.26-2.27s-1-2.39-3.26-2.39H83.16V161Z"/><path d="M94.74,158.66h3.14v2.22a3.75,3.75,0,0,1,3.53-2.49,3.39,3.39,0,0,1,2.41.95L102.36,162a2.57,2.57,0,0,0-1.44-.45c-1.5,0-3.07,1.4-3.07,4.75v5.56H94.74Z"/><path d="M104.24,165.21A6.75,6.75,0,1,1,111,172.1,6.61,6.61,0,0,1,104.24,165.21Zm10.15,0c0-2.16-1-4-3.4-4s-3.4,1.89-3.4,4,1,4.11,3.4,4.11S114.4,167.38,114.4,165.21Z"/><path d="M131.95,153.2v18.63h-3l-.15-1.48A4.59,4.59,0,0,1,125,172.1c-3.71,0-5.71-3.18-5.71-6.86s2-6.86,5.66-6.86a4.74,4.74,0,0,1,3.74,1.6V153.2Zm-3,12c0-2.22-1-3.94-3.19-3.94s-3.22,1.75-3.22,3.94,1,3.94,3.22,3.94S129,167.48,129,165.24Z"/><path d="M135.4,165.6v-6.94h3.26v7c0,2.16.44,3.48,2.39,3.48,1.5,0,3-.78,3-4.59v-5.93h3.27v13.17h-3.27v-1.54a4.69,4.69,0,0,1-3.89,1.81C136.88,172.1,135.4,169.56,135.4,165.6Z"/><path d="M150,165.27c0-3.45,2.06-6.88,6.36-6.88a5.73,5.73,0,0,1,5.7,3.89L159,163.46a2.73,2.73,0,0,0-2.64-2.16c-2.22,0-3.09,2-3.09,4s.84,3.92,3.09,3.92a2.72,2.72,0,0,0,2.64-2.1l2.93,1.11a5.65,5.65,0,0,1-5.54,3.9C152.11,172.1,150,168.76,150,165.27Z"/><path d="M165,168.19v-6.84h-2.12v-2.69H165v-3.27l3.14-2.29v5.56h3.32v2.69h-3.32v6.28c0,1.27.65,1.64,1.49,1.64a4.56,4.56,0,0,0,1.83-.47v2.91a7.61,7.61,0,0,1-2.37.4C166.51,172.1,165,170.59,165,168.19Z"/><path d="M194.17,172.83,191.72,170a8.46,8.46,0,0,1-5.62,2.11c-3.4,0-6.1-1.65-6.1-4.65,0-2.82,2.11-4.43,4.31-5.74a6.54,6.54,0,0,1-2.2-4.39c0-2.73,2.61-4.38,5.16-4.38,2.7,0,4.94,1.9,4.94,4.35,0,2.25-1.54,3.73-3.36,5l2.64,3a7.77,7.77,0,0,0,.45-2.58l3.14.32a10.38,10.38,0,0,1-1.4,4.72l2.77,3.11Zm-4.34-5-3.52-4c-1.75,1.08-3.22,2.15-3.22,3.69,0,1.25,1.2,1.87,2.93,1.87A5.4,5.4,0,0,0,189.83,167.86Zm-3.06-7.54c1.4-.84,2.45-1.73,2.45-2.94a1.83,1.83,0,0,0-1.94-1.89,1.92,1.92,0,0,0-2.08,1.91A5.7,5.7,0,0,0,186.77,160.32Z"/><path d="M204.24,166.57l3.32-.84a3.55,3.55,0,0,0,3.86,3.35c2,0,3.07-1.05,3.07-2.37,0-3.86-9-2.57-9-8.64,0-3.3,2.68-5.14,5.81-5.14a6.24,6.24,0,0,1,5.67,3.27l-2.78,1.7a3.37,3.37,0,0,0-3-2,2.12,2.12,0,0,0-2.35,2c0,3.51,9,2.32,9,8.5,0,3.52-2.91,5.64-6.47,5.64C208.08,172,204.84,170.24,204.24,166.57Z"/><path d="M219.37,165.29c0-3.43,2-6.91,6.46-6.91,4.61,0,6.1,3.71,6.1,6.65a5.24,5.24,0,0,1-.12,1.27h-9a3,3,0,0,0,3.3,2.89,4,4,0,0,0,3.16-1.4l2.22,1.94A6.88,6.88,0,0,1,226,172.1C221.5,172.1,219.37,168.84,219.37,165.29Zm9.4-1.32c-.21-1.89-1.29-2.89-3-2.89-1.9,0-2.73,1.24-3,2.89Z"/><path d="M234.62,158.66h3.14v2.22a3.75,3.75,0,0,1,3.53-2.49,3.39,3.39,0,0,1,2.41.95L242.24,162a2.57,2.57,0,0,0-1.44-.45c-1.5,0-3.07,1.4-3.07,4.75v5.56h-3.11Z"/><path d="M243.35,158.66h3.51l3.19,9,3.2-9h3.49l-5.38,13.17h-2.65Z"/><path d="M258.46,153.2h3.35v3h-3.35Zm.08,5.46h3.19v13.17h-3.19Z"/><path d="M264.39,165.27c0-3.45,2.06-6.88,6.36-6.88a5.73,5.73,0,0,1,5.7,3.89l-3.06,1.19a2.73,2.73,0,0,0-2.64-2.16c-2.22,0-3.09,2-3.09,4s.84,3.92,3.09,3.92a2.72,2.72,0,0,0,2.64-2.1l2.93,1.11a5.65,5.65,0,0,1-5.54,3.9C266.48,172.1,264.39,168.76,264.39,165.27Z"/><path d="M277.61,165.29c0-3.43,2-6.91,6.46-6.91,4.61,0,6.1,3.71,6.1,6.65a5.24,5.24,0,0,1-.12,1.27h-9a3,3,0,0,0,3.3,2.89,4,4,0,0,0,3.16-1.4l2.22,1.94a6.88,6.88,0,0,1-5.41,2.37C279.74,172.1,277.61,168.84,277.61,165.29ZM287,164c-.21-1.89-1.29-2.89-3-2.89-1.9,0-2.73,1.24-3,2.89Z"/><path d="M28.31,190.59h5.41c6.34,0,9.69,3.4,9.69,9.45,0,5.8-3.45,9.18-9.72,9.18H28.31Zm5.05,15.56c4.11,0,6.7-1.6,6.7-6.25,0-4.42-1.81-6.24-6.39-6.24h-2v12.49Z"/><path d="M45.21,202.68c0-3.43,2-6.91,6.46-6.91,4.61,0,6.1,3.71,6.1,6.65a5.24,5.24,0,0,1-.12,1.27h-9a3,3,0,0,0,3.3,2.89,4,4,0,0,0,3.16-1.4l2.22,1.94a6.88,6.88,0,0,1-5.41,2.37C47.35,209.49,45.21,206.23,45.21,202.68Zm9.4-1.32c-.21-1.89-1.29-2.89-3-2.89-1.9,0-2.73,1.24-3,2.89Z"/><path d="M58.91,205.79l2.56-1.13a2.88,2.88,0,0,0,2.81,2.16c1.49,0,2.14-.87,2.14-1.57,0-2.22-6.62-.73-6.62-5.38,0-2.78,2.35-4.1,4.89-4.1a5.49,5.49,0,0,1,5,2.86L67.19,200a2.85,2.85,0,0,0-2.61-1.67c-1.05,0-1.7.51-1.7,1.13,0,2,6.7.8,6.7,5.64,0,3-2.65,4.39-5.14,4.39A5.65,5.65,0,0,1,58.91,205.79Z"/><path d="M72.37,190.59h3.35v3H72.37Zm.08,5.46h3.19v13.17H72.45Z"/><path d="M90.62,211.06c0,3-2.56,4.4-5.83,4.4-3.89,0-6.16-2-6.16-4.69a2.45,2.45,0,0,1,.05-.57L80.06,209a2.91,2.91,0,0,1-1.29-2.6A3.42,3.42,0,0,1,80,203.64a4.72,4.72,0,0,1-1.09-3c0-2.86,2.49-4.84,5.41-4.84a6,6,0,0,1,3.11.84l2-1.73,1.67,2-1.91,1.54a4.66,4.66,0,0,1,.57,2.29c0,2.94-2.47,4.81-5.35,4.81a6.21,6.21,0,0,1-2.51-.51.77.77,0,0,0-.38.7c0,1.08,1.62,1.11,4,1.4S90.62,208,90.62,211.06Zm-3,.38c0-1-1.13-1.11-3.22-1.34a22,22,0,0,1-2.35-.36l-.67,1.11c.18,1.4,1.6,2.08,3.48,2.08C86.5,212.93,87.58,212.39,87.58,211.44Zm-5.35-10.8A2.1,2.1,0,0,0,84.41,203a2.07,2.07,0,0,0,2.16-2.32,2.11,2.11,0,0,0-2.16-2.37A2.14,2.14,0,0,0,82.22,200.64Z"/><path d="M93.3,196h3.19v1.53a5,5,0,0,1,3.89-1.81c3.45,0,4.77,2.78,4.77,5.54v7.91H102v-7.5c0-1.73-.87-3-2.52-3-1.81,0-3,1-3,3.27v7.21H93.3Z"/><path d="M115.58,190.59h13.21v3.07h-9.86v4.71h8.7v3.07h-8.7v7.78h-3.35Z"/><path d="M131.3,190.59h3.35v3H131.3Zm.08,5.46h3.19v13.17h-3.19Z"/><path d="M138.39,196h3.14v2.22a3.75,3.75,0,0,1,3.53-2.49,3.39,3.39,0,0,1,2.41.95L146,199.36a2.57,2.57,0,0,0-1.44-.45c-1.5,0-3.07,1.4-3.07,4.75v5.56h-3.11Z"/><path d="M149.14,196h3.24v1.37a4.17,4.17,0,0,1,7.05.67,5,5,0,0,1,4.36-2.32c3.38,0,4.87,2.76,4.87,5.54v7.91H165.4v-7.5c0-1.62-.46-3-2.12-3s-2.76,1.46-2.76,3.22v7.24h-3.27v-7.56c0-1.6-.44-2.9-2.08-2.9s-2.78,1.46-2.78,3.22v7.24h-3.24Z"/></svg>