<?xml version="1.0" encoding="UTF-8" standalone="no"?>
<svg width="286px" height="40px" viewBox="0 0 286 40" version="1.1" xmlns="http://www.w3.org/2000/svg" xmlns:xlink="http://www.w3.org/1999/xlink">
    <!-- Generator: Sketch 3.6.1 (26313) - http://www.bohemiancoding.com/sketch -->
    <title>ONTRUCK Logo Blue</title>
    <desc>Created with Sketch.</desc>
    <defs></defs>
    <g id="Page-1" stroke="none" stroke-width="1" fill="none" fill-rule="evenodd">
        <path d="M21.1764706,0 C9.07563025,0 0,8.45938375 0,19.8879552 C0,31.372549 9.07563025,40 21.1764706,40 C33.3333333,40 42.4089636,31.3165266 42.4089636,19.8879552 C42.4089636,8.51540616 33.3333333,0 21.1764706,0 L21.1764706,0 Z M21.2885154,8.34733894 C27.3389356,8.34733894 32.1568627,13.3333333 32.1568627,19.9439776 C32.1568627,26.5546218 27.3389356,31.6526611 21.2885154,31.6526611 C15.2941176,31.6526611 10.1960784,26.5546218 10.1960784,19.9439776 C10.1960784,13.3333333 15.2380952,8.34733894 21.2885154,8.34733894 L21.2885154,8.34733894 Z M83.8655462,39.5518207 L83.8655462,0.336134454 L74.5658263,0.336134454 L74.5658263,24.5378151 L56.4705882,0.336134454 L47.67507,0.336134454 L47.67507,39.5518207 L57.0308123,39.5518207 L57.0308123,15.4061625 L75.070028,39.5518207 L83.8655462,39.5518207 Z M121.680672,8.34733894 L121.680672,0.280112045 L88.1792717,0.280112045 L88.1792717,8.34733894 L99.8879552,8.34733894 L99.8879552,39.5518207 L109.859944,39.5518207 L109.859944,8.34733894 L121.680672,8.34733894 Z M149.579832,39.5518207 L160.896359,39.5518207 L152.661064,26.6106443 C157.254902,24.3137255 159.77591,20 159.77591,14.0056022 C159.77591,5.26610644 153.837535,0.336134454 143.473389,0.336134454 L125.938375,0.336134454 L125.938375,39.5518207 L135.910364,39.5518207 L135.910364,28.5154062 L143.473389,28.5154062 L143.753501,28.5154062 L149.579832,39.5518207 Z M135.910364,20.6722689 L135.910364,8.17927171 L143.473389,8.17927171 C147.787115,8.17927171 150.308123,10.2521008 150.308123,14.3417367 C150.308123,18.487395 147.787115,20.6722689 143.473389,20.6722689 L135.910364,20.6722689 Z M201.792717,0.336134454 L191.876751,0.336134454 L191.876751,23.0812325 C191.876751,28.4033613 188.683473,31.6526611 183.977591,31.6526611 C179.215686,31.6526611 175.798319,28.4033613 175.798319,23.0812325 L175.798319,0.336134454 L165.826331,0.336134454 L165.826331,23.0812325 C165.826331,33.4453782 172.885154,40 183.921569,40 C194.901961,40 201.792717,33.4453782 201.792717,23.0812325 L201.792717,0.336134454 Z M227.338936,0 C215.406162,0 206.386555,8.51540616 206.386555,19.8319328 C206.386555,31.3165266 215.182073,40 227.002801,40 C232.773109,40 238.991597,37.1428571 243.193277,32.8291317 L237.366947,26.6666667 C234.621849,29.4677871 230.812325,31.2605042 227.507003,31.2605042 C221.288515,31.2605042 216.582633,26.2745098 216.582633,19.719888 C216.582633,13.2773109 221.288515,8.34733894 227.507003,8.34733894 C230.980392,8.34733894 234.789916,10.3081232 237.366947,13.4453782 L243.137255,6.61064426 C239.215686,2.57703081 233.165266,0 227.338936,0 L227.338936,0 Z M273.277311,39.5518207 L285.210084,39.5518207 L269.691877,16.5826331 L284.257703,0.336134454 L272.717087,0.336134454 L257.703081,17.3109244 L257.703081,0.336134454 L247.731092,0.336134454 L247.731092,39.5518207 L257.703081,39.5518207 L257.703081,29.9159664 L262.913165,24.1456583 L273.277311,39.5518207 Z" id="ONTRUCK-Logo-Blue" fill="#39ABEA"></path>
    </g>
</svg>