<svg id="svg83110" xmlns="http://www.w3.org/2000/svg" viewBox="0 0 220.2 89.5"><style>.st0{enable-background:new ;} .st1{fill:#3366CC;} .st2{fill:#FFCC00;} .st3{fill:#FD0000;}</style><g class="st0"><path class="st1" d="M108.1 40V14.9h15.2v3.9h-11v7h9.6v3.9h-9.6V40h-4.2zM127.3 40V14.9h7.1c1.4 0 2.6.2 3.8.6s2.1.9 2.9 1.6c.8.7 1.4 1.5 1.8 2.5s.7 2.1.7 3.4c0 .7-.1 1.4-.2 2.1s-.4 1.4-.7 2c-.3.6-.7 1.2-1.2 1.8-.5.5-1.1 1-1.7 1.4l1.5 2.4c.5.8 1 1.5 1.5 2.3l1.5 2.4c.5.8 1.1 1.7 1.7 2.7h-5.1c-1-1.6-2-3.1-2.9-4.6-.9-1.4-1.8-2.8-2.7-4.1h-3.8V40h-4.2zm4.2-12.6h3.4c.9 0 1.6-.1 2.2-.4s1-.7 1.4-1.1c.3-.4.6-.9.7-1.4s.2-.9.2-1.4c0-.4-.1-.8-.2-1.3s-.4-1-.7-1.4c-.3-.4-.8-.8-1.4-1.1-.6-.3-1.3-.4-2.2-.4h-3.4v8.5zM147.1 27.5c0-1.7.3-3.4 1-5s1.6-2.9 2.8-4.1c1.2-1.2 2.5-2.1 4.1-2.8s3.2-1 5-1c1.7 0 3.4.3 5 1s2.9 1.6 4.1 2.8 2.1 2.5 2.8 4.1c.7 1.6 1 3.2 1 5 0 1.8-.3 3.4-1 5s-1.6 2.9-2.8 4.1c-1.2 1.2-2.5 2.1-4.1 2.7-1.6.7-3.2 1-5 1-1.8 0-3.4-.3-5-1-1.5-.7-2.9-1.6-4.1-2.7-1.2-1.2-2.1-2.5-2.8-4.1-.6-1.6-1-3.2-1-5zm4.3 0c0 1.2.2 2.4.7 3.4.4 1.1 1.1 2 1.9 2.8.8.8 1.7 1.4 2.8 1.9s2.2.7 3.4.7c1.2 0 2.3-.2 3.3-.7s2-1.1 2.7-1.9c.8-.8 1.4-1.7 1.8-2.8.4-1.1.7-2.2.7-3.4 0-1.2-.2-2.4-.7-3.4-.5-1.1-1.1-2-1.9-2.8-.8-.8-1.7-1.4-2.7-1.9-1-.5-2.2-.7-3.4-.7s-2.3.2-3.4.7c-1 .5-2 1.1-2.7 1.9-.8.8-1.4 1.7-1.8 2.8-.5 1-.7 2.2-.7 3.4zM199.1 14.9v26.3c-.2-.2-.5-.6-1.1-1.1l-2-2c-.8-.8-1.7-1.6-2.7-2.5-1-.9-2-1.9-3-2.8-1-1-2-1.9-3-2.8-1-.9-1.8-1.8-2.6-2.5-.8-.8-1.5-1.4-2-2s-.9-.9-1-1.1c0 0-.1-.2-.3-.4-.2-.2-.3-.4-.4-.5l.1 1.1V40h-4.2V13.8c.2.2.5.6 1.1 1.1s1.2 1.2 2 1.9c.8.8 1.7 1.6 2.7 2.5l3 2.7c1 .9 2 1.8 3 2.8s1.8 1.7 2.7 2.5c.8.7 1.5 1.4 2 1.9s.9.9 1 1.1l.7 1-.1-1.2V14.9h4.1zM219.9 14.9v4h-6.2V40h-4.2V18.9h-6.1v-4h16.5z"/></g><g class="st0"><path class="st2" d="M108 70.5V45.9h14.1V48h-11.7v9.3h10.4v2.2h-10.4v10.9H108zM127.1 70.5V45.9h15.5V48h-13.1v9h11.8v2.2h-11.8v9.1H143v2.2h-15.9zM161 47.1l-.9 1.9c-.8-.3-1.7-.6-2.7-.8-1-.2-1.9-.3-2.8-.3-.8 0-1.6.1-2.2.3-.7.2-1.2.5-1.7.9s-.8.8-1 1.3c-.2.5-.4 1-.4 1.5 0 .7.2 1.2.6 1.7.4.5.8.9 1.4 1.2.6.3 1.3.7 2 .9.8.3 1.5.6 2.3.9s1.6.6 2.3 1c.8.4 1.4.8 2 1.4s1.1 1.2 1.4 2c.4.8.6 1.7.6 2.8 0 1.1-.2 2-.6 2.9-.4.9-1 1.6-1.7 2.2-.7.6-1.6 1.1-2.7 1.4-1.1.3-2.3.5-3.6.5-1 0-1.9-.1-2.7-.3-.8-.2-1.5-.4-2.2-.6s-1.2-.5-1.7-.7c-.5-.3-.8-.5-1.1-.7l1.1-2.1c.4.3.9.5 1.4.8.5.3 1.1.5 1.6.7.6.2 1.1.3 1.7.4.6.1 1.2.2 1.8.2.6 0 1.3-.1 2-.3.7-.2 1.4-.5 2.1-.8.6-.4 1.2-.9 1.6-1.5.4-.6.6-1.3.6-2.2 0-1.1-.3-2-.9-2.6-.6-.7-1.4-1.2-2.4-1.7-.9-.5-2-.9-3.1-1.3s-2.1-.8-3.1-1.3c-.9-.5-1.7-1.1-2.4-1.8s-.6-1.8-.6-3c0-.8.2-1.6.5-2.4s.8-1.4 1.5-2 1.4-1 2.3-1.4 2-.5 3.1-.5c.6 0 1.3.1 2 .2s1.3.2 1.9.4 1.1.3 1.6.5c.5.1.9.2 1.1.3zM180.5 45.9v2.2H174v22.3h-2.4V48.1h-6.5v-2.2h15.4z"/></g><path class="st1" d="M89.5 40.2L63 66.9l-8.6-8.6 18-18-6.6-6.6-10 10.2.1-20.1L40.7 8.5 49.2 0z"/><path class="st2" d="M55.9 23.8l-.1 20-21.9 22.1V45.6z"/><path class="st3" d="M48.9 81l-8.6 8.5L0 49.3l26.6-26.7 8.6 8.7-18 18 6.5 6.4 10.2-10.1v20.3z"/></svg>