<svg version="1.1" id="Layer_1" xmlns="http://www.w3.org/2000/svg" xmlns:xlink="http://www.w3.org/1999/xlink" x="0px" y="0px"
	 viewBox="0 0 500 500" enable-background="new 0 0 500 500" xml:space="preserve">
<g>
	<path fill="#010101" d="M81.9,240.9l59.9-59.1c14.6-14.4,15.6-37,2.2-50.2c-13.4-13.2-36.2-12.2-50.8,2.1l-81.7,80.4
		c-2.4,2.2-4.2,4.9-5.9,7.5c-3.5,5-5.4,10.7-5.6,16.7C0,239.1,0,240,0,240.8c0,0.7,0,1.5,0.1,2.4c0.4,6,2.1,11.9,5.6,16.9
		c1.6,2.6,3.5,5.1,5.9,7.5l81.7,80.4c14.6,14.4,37.5,15.4,50.8,2.1c13.4-13.2,12.4-35.7-2.4-50.2L81.9,240.9z"/>
	<path fill="#010101" d="M499.9,238.5c-0.4-6-2.1-11.9-5.6-16.7c-1.6-2.6-3.5-5.1-5.9-7.5l-81.7-80.4c-14.6-14.4-37.5-15.4-50.8-2.1
		c-13.4,13.2-12.4,35.7,2.2,50.2l59.9,59.1l-59.9,59.1c-14.6,14.4-15.6,37-2.4,50.2c13.4,13.2,36.2,12.2,50.8-2.1l81.7-80.4
		c2.4-2.2,4.1-4.9,5.9-7.5c3.5-5,5.4-10.7,5.6-16.9c0-0.7,0.1-1.6,0.1-2.4C500,240.1,499.9,239.4,499.9,238.5z"/>
	<path fill="#010101" d="M287.6,96.3c-18.5-3.4-37.1,10.2-41.5,30.2L194.9,361c-4.4,20.1,7.1,39.2,25.6,42.7
		c18.5,3.5,37.1-10.1,41.5-30.2L313.2,139C317.6,118.9,306.1,99.8,287.6,96.3z"/>
</g>
</svg>
