<svg version="1.1" id="Capa_1" xmlns="http://www.w3.org/2000/svg" xmlns:xlink="http://www.w3.org/1999/xlink" x="0px" y="0px"
	 viewBox="0 0 325.592 325.592" style="enable-background:new 0 0 325.592 325.592;" xml:space="preserve">
<g>
	<g>
		<path d="M129.532,225.558c-0.133-0.919-0.625-1.747-1.368-2.303l-37.7-28.193l37.7-28.193c0.743-0.556,1.235-1.384,1.368-2.303
			c0.132-0.919-0.105-1.852-0.662-2.597l-5.989-8.008c-1.159-1.548-3.351-1.865-4.899-0.706l-52.157,39.004
			c-0.883,0.66-1.404,1.699-1.404,2.803s0.521,2.143,1.404,2.803l52.157,39.004c0.628,0.471,1.364,0.697,2.093,0.697
			c1.066,0,2.119-0.484,2.806-1.403l5.989-8.008C129.426,227.41,129.664,226.477,129.532,225.558z"/>
		<path d="M259.766,192.259l-52.155-39.004c-1.548-1.158-3.74-0.841-4.898,0.706l-5.989,8.008c-0.556,0.744-0.794,1.678-0.662,2.597
			c0.133,0.918,0.624,1.747,1.368,2.303l37.699,28.193l-37.699,28.193c-0.744,0.556-1.235,1.385-1.368,2.303
			c-0.132,0.919,0.105,1.853,0.662,2.597l5.989,8.008c0.688,0.919,1.74,1.403,2.806,1.403c0.729,0,1.464-0.227,2.093-0.697
			l52.155-39.004c0.883-0.66,1.404-1.699,1.404-2.803S260.649,192.919,259.766,192.259z"/>
		<path d="M196.264,132.436l-9.211-3.895c-0.854-0.362-1.818-0.368-2.679-0.02c-0.86,0.349-1.547,1.025-1.908,1.88l-55,130.084
			c-0.753,1.78,0.08,3.834,1.861,4.587l9.211,3.895c0.435,0.185,0.899,0.276,1.363,0.276c0.447,0,0.894-0.086,1.316-0.257
			c0.86-0.349,1.546-1.025,1.908-1.88l55-130.084C198.877,135.242,198.044,133.189,196.264,132.436z"/>
	</g>
	<path d="M308.092,8.463H17.5c-9.649,0-17.5,7.851-17.5,17.5v273.666c0,9.649,7.851,17.5,17.5,17.5h290.592
		c9.649,0,17.5-7.851,17.5-17.5V25.963C325.592,16.313,317.741,8.463,308.092,8.463z M273.465,35.296c7.995,0,14.5,6.505,14.5,14.5
		s-6.505,14.5-14.5,14.5c-7.995,0-14.5-6.505-14.5-14.5S265.47,35.296,273.465,35.296z M224.294,35.296
		c7.995,0,14.5,6.505,14.5,14.5s-6.505,14.5-14.5,14.5c-7.995,0-14.5-6.505-14.5-14.5S216.299,35.296,224.294,35.296z
		 M44.399,42.296h58.5c4.142,0,7.5,3.357,7.5,7.5s-3.358,7.5-7.5,7.5h-58.5c-4.142,0-7.5-3.357-7.5-7.5S40.257,42.296,44.399,42.296
		z M297.796,286.806c0,1.258-1.024,2.283-2.284,2.283H30.08c-1.259,0-2.284-1.025-2.284-2.283V98.336h270V286.806z"/>
</g>
</svg>
