<?xml version="1.0" encoding="UTF-8" standalone="no"?>
<!-- Created with Inkscape (http://www.inkscape.org/) -->

<svg
   xmlns:dc="http://purl.org/dc/elements/1.1/"
   xmlns:cc="http://creativecommons.org/ns#"
   xmlns:rdf="http://www.w3.org/1999/02/22-rdf-syntax-ns#"
   xmlns:svg="http://www.w3.org/2000/svg"
   xmlns="http://www.w3.org/2000/svg"
   xmlns:sodipodi="http://sodipodi.sourceforge.net/DTD/sodipodi-0.dtd"
   xmlns:inkscape="http://www.inkscape.org/namespaces/inkscape"
   width="77.667793mm"
   height="31.579865mm"
   viewBox="0 0 275.20084 111.89716"
   id="svg83110"
   version="1.1"
   inkscape:version="0.91 r13725"
   sodipodi:docname="logo.svg">
  <defs
     id="defs83112">
    <inkscape:path-effect
       is_visible="true"
       id="path-effect83584"
       effect="spiro" />
    <inkscape:path-effect
       is_visible="true"
       id="path-effect83252-6"
       effect="spiro" />
    <inkscape:path-effect
       effect="spiro"
       id="path-effect83262-3"
       is_visible="true" />
    <inkscape:path-effect
       effect="spiro"
       id="path-effect83256-0"
       is_visible="true" />
    <inkscape:path-effect
       is_visible="true"
       id="path-effect83266-9"
       effect="spiro" />
    <inkscape:path-effect
       effect="spiro"
       id="path-effect83565"
       is_visible="true" />
    <inkscape:path-effect
       is_visible="true"
       id="path-effect83580"
       effect="spiro" />
  </defs>
  <sodipodi:namedview
     id="base"
     pagecolor="#ffffff"
     bordercolor="#666666"
     borderopacity="1.0"
     inkscape:pageopacity="0.0"
     inkscape:pageshadow="2"
     inkscape:zoom="1.4142136"
     inkscape:cx="134.50707"
     inkscape:cy="26.887352"
     inkscape:document-units="px"
     inkscape:current-layer="text83337"
     showgrid="false"
     inkscape:object-nodes="true"
     inkscape:snap-intersection-paths="false"
     inkscape:object-paths="false"
     inkscape:snap-midpoints="false"
     fit-margin-top="0"
     fit-margin-left="0"
     fit-margin-right="0"
     fit-margin-bottom="0"
     inkscape:window-width="1918"
     inkscape:window-height="1060"
     inkscape:window-x="0"
     inkscape:window-y="18"
     inkscape:window-maximized="1" />
  <metadata
     id="metadata83115">
    <rdf:RDF>
      <cc:Work
         rdf:about="">
        <dc:format>image/svg+xml</dc:format>
        <dc:type
           rdf:resource="http://purl.org/dc/dcmitype/StillImage" />
        <dc:title></dc:title>
      </cc:Work>
    </rdf:RDF>
  </metadata>
  <g
     inkscape:label="Layer 1"
     inkscape:groupmode="layer"
     id="layer1"
     transform="translate(-232.15325,-93.930699)">
    <g
       style="color:#000000;font-style:normal;font-variant:normal;font-weight:300;font-stretch:normal;font-size:43.02500153px;line-height:125%;font-family:'Open Sans';-inkscape-font-specification:'Open Sans Light';text-indent:0;text-align:start;text-decoration:none;text-decoration-line:none;text-decoration-style:solid;text-decoration-color:#000000;letter-spacing:0px;word-spacing:0px;text-transform:none;direction:ltr;block-progression:tb;writing-mode:lr-tb;baseline-shift:baseline;text-anchor:start;white-space:normal;clip-rule:nonzero;display:inline;overflow:visible;visibility:visible;opacity:1;isolation:auto;mix-blend-mode:normal;color-interpolation:sRGB;color-interpolation-filters:linearRGB;solid-color:#000000;solid-opacity:1;fill:#3366cc;fill-opacity:1;fill-rule:nonzero;stroke:none;stroke-width:2.29999995;stroke-linecap:butt;stroke-linejoin:miter;stroke-miterlimit:4;stroke-dasharray:none;stroke-dashoffset:0;stroke-opacity:1;marker:none;paint-order:normal;color-rendering:auto;image-rendering:auto;shape-rendering:auto;text-rendering:auto;enable-background:new"
       id="text83337">
      <path
         d="m 367.79108,146.67894 0,-30.1175 18.54378,0 0,3.39897 -14.9727,0 0,9.85273 13.29472,0 0,3.39897 -13.29472,0 0,13.46683 -3.57108,0 z"
         style="font-style:normal;font-variant:normal;font-weight:bold;font-stretch:normal;font-family:'Josefin Sans';-inkscape-font-specification:'Josefin Sans Bold';fill:#3366cc;stroke:none;stroke-width:2.29999995;stroke-miterlimit:4;stroke-dasharray:none"
         id="path82693" />
      <path
         d="m 396.18288,129.81314 3.74317,0 q 1.8931,0 3.0978,-0.47328 1.24773,-0.5163 1.97915,-1.24772 0.73143,-0.73143 1.0326,-1.63495 0.30118,-0.90353 0.30118,-1.721 0,-0.94655 -0.5163,-1.80705 -0.47328,-0.90353 -1.33378,-1.5489 -0.81747,-0.6884 -2.02217,-1.07563 -1.16168,-0.38722 -2.49545,-0.38722 l -3.7862,0 0,9.89575 z m -3.57108,16.8658 0,-30.1175 7.09913,0 q 1.46285,0 3.22687,0.47327 1.80705,0.43025 3.35595,1.41983 1.5489,0.98957 2.5815,2.53847 1.0326,1.5489 1.0326,3.74318 0,3.22687 -1.63495,5.42115 -1.59192,2.15125 -4.68972,2.83965 l 6.45375,13.68195 -3.87225,0 -6.32468,-13.4238 -0.73142,0 -2.9257,0 0,13.4238 -3.57108,0 z"
         style="font-style:normal;font-variant:normal;font-weight:bold;font-stretch:normal;font-family:'Josefin Sans';-inkscape-font-specification:'Josefin Sans Bold';fill:#3366cc;stroke:none;stroke-width:2.29999995;stroke-miterlimit:4;stroke-dasharray:none"
         id="path82695" />
      <path
         d="m 415.13673,131.66321 q 0,-3.14082 1.20471,-5.93745 1.2047,-2.83965 3.2699,-4.94787 2.10822,-2.10823 4.90485,-3.31293 2.79662,-1.24772 5.98047,-1.24772 3.14083,0 5.93745,1.24772 2.83965,1.2047 4.94788,3.31293 2.10822,2.10822 3.31292,4.94787 1.24773,2.79663 1.24773,5.93745 0,3.18385 -1.24773,5.98048 -1.2047,2.79662 -3.31292,4.90485 -2.10823,2.0652 -4.94788,3.2699 -2.79662,1.2047 -5.93745,1.2047 -3.18385,0 -5.98047,-1.2047 -2.79663,-1.2047 -4.90485,-3.2699 -2.0652,-2.10823 -3.2699,-4.90485 -1.20471,-2.79663 -1.20471,-5.98048 z m 3.57108,0 q 0,2.49545 0.90353,4.68973 0.94655,2.15125 2.53847,3.7862 1.63495,1.59192 3.7862,2.53847 2.15125,0.94655 4.60368,0.94655 2.45242,0 4.60367,-0.94655 2.15125,-0.94655 3.74318,-2.53847 1.63495,-1.63495 2.53847,-3.7862 0.94655,-2.19428 0.94655,-4.68973 0,-2.49545 -0.94655,-4.6467 -0.90352,-2.19427 -2.53847,-3.82922 -1.59193,-1.63495 -3.74318,-2.5815 -2.15125,-0.94655 -4.60367,-0.94655 -2.45243,0 -4.60368,0.94655 -2.15125,0.94655 -3.7862,2.5815 -1.59192,1.63495 -2.53847,3.82922 -0.90353,2.15125 -0.90353,4.6467 z"
         style="font-style:normal;font-variant:normal;font-weight:bold;font-stretch:normal;font-family:'Josefin Sans';-inkscape-font-specification:'Josefin Sans Bold';fill:#3366cc;stroke:none;stroke-width:2.29999995;stroke-miterlimit:4;stroke-dasharray:none"
         id="path82697" />
      <path
         d="m 479.19424,116.56144 0,31.4943 q -5.55023,-5.89443 -11.0144,-11.7028 -5.46418,-5.80838 -11.0144,-11.7028 -0.21513,-0.30118 -0.43025,-0.55933 -0.1721,-0.25815 -0.38723,-0.55932 0.043,0.3442 0.043,0.6884 0.043,0.3442 0.0861,0.6884 l 0,21.77065 -3.57108,0 0,-31.4943 q 5.55023,6.0235 11.0144,11.96095 5.46418,5.89442 11.0144,11.91792 0.21513,0.30118 0.38723,0.55933 0.21512,0.25815 0.43025,0.55932 -0.043,-0.3442 -0.0861,-0.6884 0,-0.3442 -0.043,-0.6884 l 0,-22.24392 3.57108,0 z"
         style="font-style:normal;font-variant:normal;font-weight:bold;font-stretch:normal;font-family:'Josefin Sans';-inkscape-font-specification:'Josefin Sans Bold';fill:#3366cc;stroke:none;stroke-width:2.29999995;stroke-miterlimit:4;stroke-dasharray:none"
         id="path82699" />
      <path
         d="m 507.35411,116.56144 0,3.39897 -10.06786,0 0,26.71853 -3.57107,0 0,-26.71853 -10.1539,0 0,-3.39897 23.79283,0 z"
         style="font-style:normal;font-variant:normal;font-weight:bold;font-stretch:normal;font-family:'Josefin Sans';-inkscape-font-specification:'Josefin Sans Bold';fill:#3366cc;stroke:none;stroke-width:2.29999995;stroke-miterlimit:4;stroke-dasharray:none"
         id="path82701" />
    </g>
    <g
       style="color:#000000;font-style:normal;font-variant:normal;font-weight:300;font-stretch:normal;font-size:43.02500153px;line-height:125%;font-family:'Open Sans';-inkscape-font-specification:'Open Sans Light';text-indent:0;text-align:start;text-decoration:none;text-decoration-line:none;text-decoration-style:solid;text-decoration-color:#000000;letter-spacing:0px;word-spacing:0px;text-transform:none;direction:ltr;block-progression:tb;writing-mode:lr-tb;baseline-shift:baseline;text-anchor:start;white-space:normal;clip-rule:nonzero;display:inline;overflow:visible;visibility:visible;opacity:1;isolation:auto;mix-blend-mode:normal;color-interpolation:sRGB;color-interpolation-filters:linearRGB;solid-color:#000000;solid-opacity:1;fill:#ffcc00;fill-opacity:1;fill-rule:nonzero;stroke:none;stroke-width:2.79999995;stroke-linecap:butt;stroke-linejoin:miter;stroke-miterlimit:4;stroke-dasharray:none;stroke-dashoffset:0;stroke-opacity:1;marker:none;paint-order:normal;color-rendering:auto;image-rendering:auto;shape-rendering:auto;text-rendering:auto;enable-background:new"
       id="text83341">
      <path
         d="m 366.13677,184.75261 0,-30.1175 17.85538,0 0,1.721 -16.09136,0 0,12.34817 14.41338,0 0,1.721 -14.41338,0 0,14.32733 -1.76402,0 z"
         style="font-style:normal;font-variant:normal;font-weight:normal;font-stretch:normal;font-family:'Josefin Sans';-inkscape-font-specification:'Josefin Sans';fill:#ffcc00;stroke:none;stroke-width:2.79999995;stroke-miterlimit:4;stroke-dasharray:none"
         id="path82684" />
      <path
         d="m 391.43076,184.75261 0,-30.1175 17.85538,0 0,1.721 -16.09135,0 0,12.34817 14.41338,0 0,1.721 -14.41338,0 0,12.60633 16.6937,0 0,1.721 -18.45773,0 z"
         style="font-style:normal;font-variant:normal;font-weight:normal;font-stretch:normal;font-family:'Josefin Sans';-inkscape-font-specification:'Josefin Sans';fill:#ffcc00;stroke:none;stroke-width:2.79999995;stroke-miterlimit:4;stroke-dasharray:none"
         id="path82686" />
      <path
         d="m 432.24267,157.17358 q -0.30118,0.3442 -0.55933,0.6884 -0.21512,0.3442 -0.47327,0.6884 -0.38723,-0.3442 -0.94655,-0.73142 -0.55933,-0.43025 -1.33378,-0.77445 -0.73142,-0.38723 -1.67797,-0.60235 -0.90353,-0.25815 -1.97915,-0.25815 -1.50588,0 -2.62453,0.5163 -1.11865,0.47327 -1.8931,1.33377 -0.73142,0.81748 -1.11865,1.93613 -0.3442,1.07562 -0.3442,2.2373 0,1.24772 0.38723,2.15125 0.43025,0.8605 1.11865,1.46285 0.73142,0.60235 1.721,1.07562 0.98957,0.43025 2.15125,0.81748 1.3768,0.47327 3.05477,1.07562 1.721,0.55933 3.22688,1.59193 1.50587,0.98957 2.49545,2.53847 1.0326,1.50588 1.0326,3.82923 0,1.8931 -0.73143,3.442 -0.6884,1.5489 -1.93612,2.66755 -1.2047,1.07562 -2.88268,1.67797 -1.63495,0.55933 -3.48502,0.55933 -1.67798,0 -3.14083,-0.43025 -1.41982,-0.43025 -2.53847,-1.07563 -1.11865,-0.64537 -1.97915,-1.3768 -0.81748,-0.73142 -1.29075,-1.29075 l 1.2047,-1.2047 q 0.60235,0.60235 1.3768,1.24773 0.77445,0.64537 1.67797,1.2047 0.94655,0.5163 2.0652,0.8605 1.11865,0.3442 2.4094,0.3442 1.46285,0 2.79663,-0.43025 1.33377,-0.47328 2.36637,-1.29075 1.0326,-0.8605 1.63495,-2.0652 0.64538,-1.2047 0.64538,-2.7536 0,-1.93613 -0.8605,-3.18385 -0.8605,-1.24773 -2.15125,-2.0652 -1.24773,-0.81748 -2.7536,-1.33378 -1.50588,-0.5163 -2.79663,-0.94655 -0.81747,-0.25815 -1.93612,-0.6884 -1.07563,-0.43025 -2.10823,-1.2047 -0.98957,-0.77445 -1.76402,-1.93612 -0.73143,-1.2047 -0.77445,-2.96873 -0.0861,-1.41982 0.30117,-2.83965 0.43025,-1.46285 1.3768,-2.5815 0.94655,-1.16167 2.45243,-1.8931 1.50587,-0.73142 3.65712,-0.73142 1.63495,0 3.31293,0.55932 1.721,0.55933 3.6141,2.15125 z"
         style="font-style:normal;font-variant:normal;font-weight:normal;font-stretch:normal;font-family:'Josefin Sans';-inkscape-font-specification:'Josefin Sans';fill:#ffcc00;stroke:none;stroke-width:2.79999995;stroke-miterlimit:4;stroke-dasharray:none"
         id="path82688" />
      <path
         d="m 461.23009,154.63511 0,1.721 -11.0144,0 0,28.3965 -1.76403,0 0,-28.3965 -11.0144,0 0,-1.721 23.79283,0 z"
         style="font-style:normal;font-variant:normal;font-weight:normal;font-stretch:normal;font-family:'Josefin Sans';-inkscape-font-specification:'Josefin Sans';fill:#ffcc00;stroke:none;stroke-width:2.79999995;stroke-miterlimit:4;stroke-dasharray:none"
         id="path82690" />
    </g>
    <g
       id="g83596"
       transform="matrix(0.35204081,0,0,0.35204081,-824.22923,-1507.9211)">
      <path
         style="fill:#ffcc00;fill-opacity:1;fill-rule:evenodd;stroke:none;stroke-width:1px;stroke-linecap:butt;stroke-linejoin:miter;stroke-opacity:1"
         d="m 3199.2879,4634.5954 35.2735,35.3866 -113.5406,114.3602 -36.2312,-36.2694"
         id="path83582"
         inkscape:path-effect="#path-effect83584"
         inkscape:original-d="m 3199.2879,4634.5954 35.2735,35.3866 -113.5406,114.3602 c -11.9463,-12.2101 14.3632,-3.447 -36.2312,-36.2694"
         inkscape:connector-curvature="0"
         sodipodi:nodetypes="cccc" />
      <path
         style="display:inline;fill:#ff3b3b;fill-opacity:1;fill-rule:evenodd;stroke:none;stroke-width:1px;stroke-linecap:butt;stroke-linejoin:miter;stroke-opacity:1"
         d="m 3125.599,4661.1603 -30.5368,-30.5368 -94.3235,94.559 60.9786,-0.1312 63.8817,-63.891"
         id="path83250"
         inkscape:path-effect="#path-effect83252-6"
         inkscape:original-d="m 3125.599,4661.1603 -30.5368,-30.5368 -94.3235,94.559 60.9786,-0.1312 63.8817,-63.891"
         inkscape:connector-curvature="0"
         sodipodi:nodetypes="ccccc" />
      <path
         sodipodi:nodetypes="ccccc"
         inkscape:connector-curvature="0"
         inkscape:original-d="m 3193.8488,4757.0822 30.5368,30.5369 94.3235,-94.5732 -60.9786,0.1311 -63.8817,63.9052"
         inkscape:path-effect="#path-effect83262-3"
         id="path83260"
         d="m 3193.8488,4757.0822 30.5368,30.5369 94.3235,-94.5732 -60.9786,0.1311 -63.8817,63.9052"
         style="display:inline;fill:#96b9ff;fill-opacity:1;fill-rule:evenodd;stroke:none;stroke-width:1px;stroke-linecap:butt;stroke-linejoin:miter;stroke-opacity:1" />
      <path
         inkscape:connector-curvature="0"
         inkscape:original-d="m 3174.2829,4837.7218 -30.3188,30.3188 -143.2254,-142.8581 60.9786,-0.1312 112.5656,112.6705"
         inkscape:path-effect="#path-effect83256-0"
         id="path83254"
         d="m 3174.2829,4837.7218 -30.3188,30.3188 -143.2254,-142.8581 60.9786,-0.1312 112.5656,112.6705"
         style="display:inline;fill:#fd0000;fill-opacity:1;fill-rule:evenodd;stroke:none;stroke-width:0.99286097px;stroke-linecap:butt;stroke-linejoin:miter;stroke-opacity:1"
         sodipodi:nodetypes="ccccc" />
      <path
         sodipodi:nodetypes="ccccc"
         style="display:inline;fill:#6699ff;fill-rule:evenodd;stroke:none;stroke-width:0.99286097px;stroke-linecap:butt;stroke-linejoin:miter;stroke-opacity:1"
         d="m 3145.1649,4580.5066 30.3188,-30.3188 143.2254,142.8581 -60.9786,0.1311 -112.5656,-112.6704"
         id="path83264"
         inkscape:original-d="m 3145.1649,4580.5066 30.3188,-30.3188 143.2254,142.8581 -60.9786,0.1311 -112.5656,-112.6704"
         inkscape:connector-curvature="0"
         inkscape:path-effect="#path-effect83266-9" />
      <path
         style="fill:#ff3b3b;fill-opacity:1;fill-rule:evenodd;stroke:none;stroke-width:1.09102225px;stroke-linecap:butt;stroke-linejoin:miter;stroke-opacity:1"
         d="m 3120.9729,4784.374 0,-72.1095 -36.2353,35.8401 36.2353,36.2694 z"
         id="path83563"
         inkscape:path-effect="#path-effect83565"
         inkscape:original-d="m 3120.9729,4784.374 0,-72.1095 -36.2353,35.8401 z"
         inkscape:connector-curvature="0"
         sodipodi:nodetypes="cccc" />
      <path
         sodipodi:nodetypes="cccc"
         inkscape:connector-curvature="0"
         inkscape:original-d="m 3199.24,4634.6273 -0.2074,71.409 35.5288,-36.0543 z"
         inkscape:path-effect="#path-effect83580"
         id="path83578"
         d="m 3199.24,4634.6273 -0.2074,71.409 35.5288,-36.0543 -35.3214,-35.3547 z"
         style="fill:#96b9ff;fill-opacity:1;fill-rule:evenodd;stroke:none;stroke-width:1.09102225px;stroke-linecap:butt;stroke-linejoin:miter;stroke-opacity:1" />
    </g>
  </g>
</svg>
