<?xml version="1.0" encoding="iso-8859-1"?>
<!-- Generator: Adobe Illustrator 19.0.0, SVG Export Plug-In . SVG Version: 6.00 Build 0)  -->
<svg xmlns="http://www.w3.org/2000/svg" xmlns:xlink="http://www.w3.org/1999/xlink" version="1.1" id="Capa_1" x="0px" y="0px" viewBox="0 0 512 512" style="enable-background:new 0 0 512 512;" xml:space="preserve" width="450px" height="450px">
<g>
	<g>
		<path d="M120.238,400.741h-0.078c-2.211,0-3.961,1.789-3.961,4s1.832,4,4.039,4c2.211,0,4-1.789,4-4    S122.449,400.741,120.238,400.741z" fill="#FFFFFF"/>
	</g>
</g>
<g>
	<g>
		<path d="M172.238,320.741h-0.078c-2.211,0-3.961,1.789-3.961,4s1.832,4,4.039,4c2.211,0,4-1.789,4-4    S174.449,320.741,172.238,320.741z" fill="#FFFFFF"/>
	</g>
</g>
<g>
	<g>
		<path d="M204.238,232.741h-0.078c-2.211,0-3.961,1.789-3.961,4s1.832,4,4.039,4c2.211,0,4-1.789,4-4    S206.449,232.741,204.238,232.741z" fill="#FFFFFF"/>
	</g>
</g>
<g>
	<g>
		<path d="M348.234,248.741h-0.078c-2.203,0-3.953,1.789-3.953,4s1.828,4,4.031,4c2.219,0,4-1.789,4-4    S350.453,248.741,348.234,248.741z" fill="#FFFFFF"/>
	</g>
</g>
<g>
	<g>
		<path d="M276.234,328.741h-0.078c-2.203,0-3.953,1.789-3.953,4s1.828,4,4.031,4c2.219,0,4-1.789,4-4    S278.453,328.741,276.234,328.741z" fill="#FFFFFF"/>
	</g>
</g>
<g>
	<g>
		<path d="M144.238,400.741h-0.078c-2.211,0-3.961,1.789-3.961,4s1.832,4,4.039,4c2.211,0,4-1.789,4-4    S146.449,400.741,144.238,400.741z" fill="#FFFFFF"/>
	</g>
</g>
<g>
	<g>
		<path d="M168.238,400.741h-0.078c-2.211,0-3.961,1.789-3.961,4s1.832,4,4.039,4c2.211,0,4-1.789,4-4    S170.449,400.741,168.238,400.741z" fill="#FFFFFF"/>
	</g>
</g>
<g>
	<g>
		<path d="M192.238,400.741h-0.078c-2.211,0-3.961,1.789-3.961,4s1.832,4,4.039,4c2.211,0,4-1.789,4-4    S194.449,400.741,192.238,400.741z" fill="#FFFFFF"/>
	</g>
</g>
<g>
	<g>
		<path d="M216.238,400.741h-0.078c-2.211,0-3.961,1.789-3.961,4s1.832,4,4.039,4c2.211,0,4-1.789,4-4    S218.449,400.741,216.238,400.741z" fill="#FFFFFF"/>
	</g>
</g>
<g>
	<g>
		<path d="M240.238,400.741h-0.078c-2.211,0-3.961,1.789-3.961,4s1.832,4,4.039,4c2.211,0,4-1.789,4-4    S242.449,400.741,240.238,400.741z" fill="#FFFFFF"/>
	</g>
</g>
<g>
	<g>
		<path d="M264.234,400.741h-0.078c-2.207,0-3.957,1.789-3.957,4s1.832,4,4.035,4c2.219,0,4-1.789,4-4    S266.453,400.741,264.234,400.741z" fill="#FFFFFF"/>
	</g>
</g>
<g>
	<g>
		<path d="M288.234,400.741h-0.078c-2.203,0-3.953,1.789-3.953,4s1.828,4,4.031,4c2.219,0,4-1.789,4-4    S290.453,400.741,288.234,400.741z" fill="#FFFFFF"/>
	</g>
</g>
<g>
	<g>
		<path d="M312.234,400.741h-0.078c-2.203,0-3.953,1.789-3.953,4s1.828,4,4.031,4c2.219,0,4-1.789,4-4    S314.453,400.741,312.234,400.741z" fill="#FFFFFF"/>
	</g>
</g>
<g>
	<g>
		<path d="M28,208.741c-15.438,0-28,12.562-28,28c0,2.211,1.789,4,4,4s4-1.789,4-4c0-11.027,8.973-20,20-20c2.211,0,4-1.789,4-4    S30.211,208.741,28,208.741z" fill="#FFFFFF"/>
	</g>
</g>
<g>
	<g>
		<path d="M483.992,208.741c-2.211,0-4,1.789-4,4s1.789,4,4,4c11.023,0,20,8.973,20,20c0,2.211,1.789,4,4,4s4-1.789,4-4    C511.992,221.303,499.43,208.741,483.992,208.741z" fill="#FFFFFF"/>
	</g>
</g>
<g>
	<g>
		<path d="M507.992,408.741c-2.211,0-4,1.789-4,4c0,11.023-8.977,20-20,20c-2.211,0-4,1.789-4,4s1.789,4,4,4    c15.438,0,28-12.562,28-28C511.992,410.53,510.203,408.741,507.992,408.741z" fill="#FFFFFF"/>
	</g>
</g>
<g>
	<g>
		<path d="M28,432.741c-11.027,0-20-8.977-20-20c0-2.211-1.789-4-4-4s-4,1.789-4,4c0,15.438,12.562,28,28,28c2.211,0,4-1.789,4-4    S30.211,432.741,28,432.741z" fill="#FFFFFF"/>
	</g>
</g>
<g>
	<g>
		<path d="M4,296.741c-2.211,0-4,1.789-4,4s1.789,4,4,4c11.027,0,20,8.969,20,20c0,2.211,1.789,4,4,4s4-1.789,4-4    C32,309.303,19.438,296.741,4,296.741z" fill="#FFFFFF"/>
	</g>
</g>
<g>
	<g>
		<path d="M28,320.741c-2.211,0-4,1.789-4,4c0,11.023-8.973,20-20,20c-2.211,0-4,1.789-4,4s1.789,4,4,4c15.438,0,28-12.562,28-28    C32,322.53,30.211,320.741,28,320.741z" fill="#FFFFFF"/>
	</g>
</g>
<g>
	<g>
		<path d="M483.992,208.741H28c-2.211,0-4,1.789-4,4s1.789,4,4,4h455.992c2.211,0,4-1.789,4-4S486.203,208.741,483.992,208.741z" fill="#FFFFFF"/>
	</g>
</g>
<g>
	<g>
		<path d="M483.992,432.741H28c-2.211,0-4,1.789-4,4s1.789,4,4,4h455.992c2.211,0,4-1.789,4-4S486.203,432.741,483.992,432.741z" fill="#FFFFFF"/>
	</g>
</g>
<g>
	<g>
		<path d="M4,232.741c-2.211,0-4,1.789-4,4v64c0,2.211,1.789,4,4,4s4-1.789,4-4v-64C8,234.53,6.211,232.741,4,232.741z" fill="#FFFFFF"/>
	</g>
</g>
<g>
	<g>
		<path d="M4,344.741c-2.211,0-4,1.789-4,4v64c0,2.211,1.789,4,4,4s4-1.789,4-4v-64C8,346.53,6.211,344.741,4,344.741z" fill="#FFFFFF"/>
	</g>
</g>
<g>
	<g>
		<path d="M508,344.733c-11.031,0-20-8.969-20-19.992c0-2.211-1.789-4-4-4s-4,1.789-4,4c0,15.43,12.562,27.992,28,27.992    c2.211,0,4-1.789,4-4S510.211,344.733,508,344.733z" fill="#FFFFFF"/>
	</g>
</g>
<g>
	<g>
		<path d="M508,296.741c-15.438,0-28,12.562-28,28c0,2.211,1.789,4,4,4s4-1.789,4-4c0-11.031,8.969-20,20-20c2.211,0,4-1.789,4-4    S510.211,296.741,508,296.741z" fill="#FFFFFF"/>
	</g>
</g>
<g>
	<g>
		<path d="M508,344.733c-2.211,0-4,1.789-4,4v64.008c0,2.211,1.789,4,4,4s4-1.789,4-4v-64.008    C512,346.522,510.211,344.733,508,344.733z" fill="#FFFFFF"/>
	</g>
</g>
<g>
	<g>
		<path d="M508,232.741c-2.211,0-4,1.789-4,4v64c0,2.211,1.789,4,4,4s4-1.789,4-4v-64C512,234.53,510.211,232.741,508,232.741z" fill="#FFFFFF"/>
	</g>
</g>
<g>
	<g>
		<path d="M404,224.741c-2.211,0-4,1.789-4,4v12c0,2.211,1.789,4,4,4s4-1.789,4-4v-12C408,226.53,406.211,224.741,404,224.741z" fill="#FFFFFF"/>
	</g>
</g>
<g>
	<g>
		<g>
			<path d="M404,308.741c-2.211,0-4,1.789-4,4v24c0,2.211,1.789,4,4,4s4-1.789,4-4v-24C408,310.53,406.211,308.741,404,308.741z" fill="#FFFFFF"/>
			<path d="M404,356.741c-2.211,0-4,1.789-4,4v24c0,2.211,1.789,4,4,4s4-1.789,4-4v-24C408,358.53,406.211,356.741,404,356.741z" fill="#FFFFFF"/>
			<path d="M404,260.741c-2.211,0-4,1.789-4,4v24c0,2.211,1.789,4,4,4s4-1.789,4-4v-24C408,262.53,406.211,260.741,404,260.741z" fill="#FFFFFF"/>
		</g>
	</g>
</g>
<g>
	<g>
		<path d="M404,404.741c-2.211,0-4,1.789-4,4v12c0,2.211,1.789,4,4,4s4-1.789,4-4v-12C408,406.53,406.211,404.741,404,404.741z" fill="#FFFFFF"/>
	</g>
</g>
<g>
	<g>
		<path d="M436,232.741c-2.211,0-4,1.789-4,4v176c0,2.211,1.789,4,4,4s4-1.789,4-4v-176C440,234.53,438.211,232.741,436,232.741z" fill="#FFFFFF"/>
	</g>
</g>
<g>
	<g>
		<path d="M452,272.741c-2.211,0-4,1.789-4,4v96c0,2.211,1.789,4,4,4s4-1.789,4-4v-96C456,274.53,454.211,272.741,452,272.741z" fill="#FFFFFF"/>
	</g>
</g>
<g>
	<g>
		<path d="M116,256.741c-2.211,0-4,1.789-4,4v48c0,2.211,1.789,4,4,4s4-1.789,4-4v-48C120,258.53,118.211,256.741,116,256.741z" fill="#FFFFFF"/>
	</g>
</g>
<g>
	<g>
		<path d="M132,256.741h-32c-2.211,0-4,1.789-4,4s1.789,4,4,4h32c2.211,0,4-1.789,4-4S134.211,256.741,132,256.741z" fill="#FFFFFF"/>
	</g>
</g>
<g>
	<g>
		<path d="M312,256.741c-2.211,0-4,1.789-4,4v48c0,2.211,1.789,4,4,4s4-1.789,4-4v-48C316,258.53,314.211,256.741,312,256.741z" fill="#FFFFFF"/>
	</g>
</g>
<g>
	<g>
		<path d="M328,256.741h-32c-2.211,0-4,1.789-4,4s1.789,4,4,4h32c2.211,0,4-1.789,4-4S330.211,256.741,328,256.741z" fill="#FFFFFF"/>
	</g>
</g>
<g>
	<g>
		<path d="M148,256.741c-2.211,0-4,1.789-4,4v48c0,2.211,1.789,4,4,4s4-1.789,4-4v-48C152,258.53,150.211,256.741,148,256.741z" fill="#FFFFFF"/>
	</g>
</g>
<g>
	<g>
		<path d="M216,256.741c-2.211,0-4,1.789-4,4v48c0,2.211,1.789,4,4,4s4-1.789,4-4v-48C220,258.53,218.211,256.741,216,256.741z" fill="#FFFFFF"/>
	</g>
</g>
<g>
	<g>
		<path d="M242.398,257.541c-1.758-1.316-4.27-0.965-5.598,0.801l-24,32c-1.328,1.766-0.969,4.274,0.801,5.594    c0.719,0.539,1.559,0.805,2.395,0.805c1.219,0,2.418-0.554,3.203-1.602l24-32C244.527,261.373,244.168,258.865,242.398,257.541z" fill="#FFFFFF"/>
	</g>
</g>
<g>
	<g>
		<path d="M243.429,306.679l-16-26.672c-1.133-1.89-3.59-2.5-5.488-1.367c-1.894,1.132-2.508,3.593-1.371,5.484l16,26.672    c0.75,1.25,2.075,1.945,3.434,1.945c0.699,0,1.41-0.187,2.054-0.57C243.952,311.031,244.566,308.577,243.429,306.679z" fill="#FFFFFF"/>
	</g>
</g>
<g>
	<g>
		<path d="M184,256.741c-8.824,0-16,7.176-16,16c0,2.211,1.789,4,4,4s4-1.789,4-4c0-4.414,3.59-8,8-8c4.41,0,8,3.586,8,8    c0,2.211,1.789,4,4,4s4-1.789,4-4C200,263.917,192.824,256.741,184,256.741z" fill="#FFFFFF"/>
	</g>
</g>
<g>
	<g>
		<path d="M196,292.741c-2.211,0-4,1.789-4,4c0,4.406-3.59,8-8,8c-4.41,0-8-3.594-8-8c0-2.211-1.789-4-4-4s-4,1.789-4,4    c0,8.82,7.176,16,16,16c8.824,0,16-7.179,16-16C200,294.53,198.211,292.741,196,292.741z" fill="#FFFFFF"/>
	</g>
</g>
<g>
	<g>
		<path d="M172,268.741c-2.211,0-4,1.789-4,4v24c0,2.211,1.789,4,4,4s4-1.789,4-4v-24C176,270.53,174.211,268.741,172,268.741z" fill="#FFFFFF"/>
	</g>
</g>
<g>
	<g>
		<path d="M260,256.741c-2.211,0-4,1.789-4,4v48c0,2.211,1.789,4,4,4s4-1.789,4-4v-48C264,258.53,262.211,256.741,260,256.741z" fill="#FFFFFF"/>
	</g>
</g>
<g>
	<g>
		<path d="M284,304.741h-24c-2.211,0-4,1.789-4,4s1.789,4,4,4h24c2.211,0,4-1.789,4-4S286.211,304.741,284,304.741z" fill="#FFFFFF"/>
	</g>
</g>
<g>
	<g>
		<path d="M284,256.741h-24c-2.211,0-4,1.789-4,4s1.789,4,4,4h24c2.211,0,4-1.789,4-4S286.211,256.741,284,256.741z" fill="#FFFFFF"/>
	</g>
</g>
<g>
	<g>
		<path d="M276,280.741h-16c-2.211,0-4,1.789-4,4s1.789,4,4,4h16c2.211,0,4-1.789,4-4S278.211,280.741,276,280.741z" fill="#FFFFFF"/>
	</g>
</g>
<g>
	<g>
		<path d="M316,352.741H116c-2.211,0-4,1.789-4,4s1.789,4,4,4h200c2.211,0,4-1.789,4-4S318.211,352.741,316,352.741z" fill="#FFFFFF"/>
	</g>
</g>
<g>
	<g>
		<path d="M260,368.741h-88c-2.211,0-4,1.789-4,4s1.789,4,4,4h88c2.211,0,4-1.789,4-4S262.211,368.741,260,368.741z" fill="#FFFFFF"/>
	</g>
</g>
<g>
	<g>
		<path d="M348,296.741c-2.211,0-4,1.789-4,4v16c0,2.211,1.789,4,4,4s4-1.789,4-4v-16C352,298.53,350.211,296.741,348,296.741z" fill="#FFFFFF"/>
	</g>
</g>
<g>
	<g>
		<path d="M356,304.741h-16c-2.211,0-4,1.789-4,4s1.789,4,4,4h16c2.211,0,4-1.789,4-4S358.211,304.741,356,304.741z" fill="#FFFFFF"/>
	</g>
</g>
<g>
	<g>
		<path d="M68,256.741c-2.211,0-4,1.789-4,4v16c0,2.211,1.789,4,4,4s4-1.789,4-4v-16C72,258.53,70.211,256.741,68,256.741z" fill="#FFFFFF"/>
	</g>
</g>
<g>
	<g>
		<path d="M76,264.741H60c-2.211,0-4,1.789-4,4s1.789,4,4,4h16c2.211,0,4-1.789,4-4S78.211,264.741,76,264.741z" fill="#FFFFFF"/>
	</g>
</g>
<g>
	<g>
		<path d="M307.859,158.999h-0.078c-2.203,0-3.953,1.789-3.953,4s1.828,4,4.031,4c2.219,0,4-1.789,4-4    S310.078,158.999,307.859,158.999z" fill="#FFFFFF"/>
	</g>
</g>
<g>
	<g>
		<path d="M454.946,89.214c-5.539-14.41-21.766-21.629-36.18-16.09c-2.063,0.793-3.094,3.105-2.305,5.168s3.117,3.086,5.164,2.301    c10.321-3.957,21.899,1.199,25.852,11.488c0.617,1.589,2.132,2.566,3.734,2.566c0.477,0,0.961-0.085,1.43-0.265    C454.704,93.589,455.735,91.276,454.946,89.214z" fill="#FFFFFF"/>
	</g>
</g>
<g>
	<g>
		<path d="M423.93,75.413c-0.797-2.067-3.117-3.078-5.172-2.297L106.985,193.007c-2.059,0.793-3.09,3.11-2.297,5.172    c0.613,1.589,2.129,2.562,3.734,2.562c0.476,0,0.965-0.086,1.437-0.265L421.633,80.585    C423.688,79.792,424.719,77.475,423.93,75.413z" fill="#FFFFFF"/>
	</g>
</g>
<g>
	<g>
		<path d="M495.149,193.738c-0.797-2.063-3.117-3.086-5.164-2.301c-10.313,3.946-21.899-1.199-25.852-11.48    c-0.789-2.067-3.133-3.094-5.164-2.301c-2.063,0.793-3.094,3.109-2.305,5.168c4.273,11.113,14.914,17.945,26.164,17.945    c3.336,0,6.727-0.598,10.016-1.863C494.907,198.113,495.938,195.8,495.149,193.738z" fill="#FFFFFF"/>
	</g>
</g>
<g>
	<g>
		<path d="M477.922,148.941c-0.797-2.063-3.133-3.086-5.172-2.301c-14.406,5.539-21.625,21.77-16.086,36.184    c0.617,1.589,2.132,2.566,3.734,2.566c0.477,0,0.961-0.086,1.43-0.265c2.063-0.793,3.094-3.106,2.305-5.168    c-3.961-10.297,1.195-21.895,11.492-25.848C477.688,153.316,478.719,151.004,477.922,148.941z" fill="#FFFFFF"/>
	</g>
</g>
<g>
	<g>
		<path d="M477.923,148.937l-22.969-59.734c-0.797-2.063-3.117-3.078-5.172-2.297c-2.063,0.793-3.094,3.11-2.297,5.172    l22.969,59.734c0.609,1.589,2.125,2.562,3.734,2.562c0.476,0,0.968-0.086,1.438-0.265    C477.689,153.316,478.72,150.999,477.923,148.937z" fill="#FFFFFF"/>
	</g>
</g>
<g>
	<g>
		<path d="M359.313,130.261l-4.305-11.199c-0.797-2.063-3.109-3.09-5.172-2.297c-2.063,0.793-3.086,3.11-2.297,5.172l4.305,11.199    c0.617,1.589,2.132,2.562,3.734,2.562c0.484,0,0.969-0.086,1.438-0.265C359.079,134.64,360.11,132.323,359.313,130.261z" fill="#FFFFFF"/>
	</g>
</g>
<g>
	<g>
		<path d="M373.126,166.167l-6.906-17.953c-0.797-2.063-3.11-3.094-5.172-2.297c-2.063,0.793-3.094,3.11-2.297,5.172l6.906,17.953    c0.609,1.589,2.125,2.562,3.734,2.562c0.476,0,0.968-0.085,1.438-0.265C372.892,170.546,373.923,168.229,373.126,166.167z" fill="#FFFFFF"/>
	</g>
</g>
<g>
	<g>
		<path d="M384.337,195.32l-4.305-11.199c-0.797-2.063-3.11-3.094-5.172-2.297c-2.063,0.793-3.094,3.11-2.297,5.172l4.305,11.199    c0.617,1.589,2.132,2.562,3.734,2.562c0.476,0,0.96-0.086,1.438-0.265C384.103,199.699,385.126,197.382,384.337,195.32z" fill="#FFFFFF"/>
	</g>
</g>
<g>
	<g>
		<path d="M418.61,195.289l-30.859-80.242c-0.797-2.063-3.117-3.086-5.172-2.297c-2.063,0.793-3.094,3.11-2.297,5.172l30.859,80.242    c0.609,1.589,2.125,2.562,3.734,2.562c0.477,0,0.969-0.086,1.438-0.265C418.376,199.668,419.407,197.351,418.61,195.289z" fill="#FFFFFF"/>
	</g>
</g>
<g>
	<g>
		<path d="M435.766,195.304l-18.727-48.672c-0.797-2.059-3.102-3.082-5.172-2.297c-2.063,0.793-3.086,3.11-2.297,5.172    l18.727,48.672c0.609,1.589,2.125,2.562,3.734,2.562c0.477,0,0.969-0.086,1.438-0.265    C435.532,199.683,436.563,197.366,435.766,195.304z" fill="#FFFFFF"/>
	</g>
</g>
<g>
	<g>
		<path d="M285.751,195.265l-5.125-13.32c-0.797-2.063-3.11-3.086-5.172-2.297c-2.063,0.793-3.094,3.11-2.297,5.172l5.125,13.32    c0.609,1.589,2.125,2.562,3.734,2.562c0.476,0,0.968-0.086,1.438-0.265C285.517,199.644,286.548,197.327,285.751,195.265z" fill="#FFFFFF"/>
	</g>
</g>
<g>
	<g>
		<path d="M295.563,176.211c-0.797-2.063-3.102-3.086-5.172-2.297l-29.867,11.484c-2.059,0.793-3.09,3.11-2.297,5.172    c0.613,1.589,2.129,2.562,3.734,2.562c0.477,0,0.965-0.086,1.438-0.265l29.867-11.484    C295.329,180.59,296.36,178.274,295.563,176.211z" fill="#FFFFFF"/>
	</g>
</g>
<g>
	<g>
		<path d="M254.493,192.003c-0.797-2.063-3.109-3.09-5.168-2.301l-8.602,3.305c-2.063,0.793-3.094,3.106-2.301,5.168    c0.613,1.589,2.129,2.566,3.734,2.566c0.477,0,0.961-0.086,1.434-0.265l8.602-3.305    C254.255,196.378,255.286,194.065,254.493,192.003z" fill="#FFFFFF"/>
	</g>
</g>
<g>
</g>
<g>
</g>
<g>
</g>
<g>
</g>
<g>
</g>
<g>
</g>
<g>
</g>
<g>
</g>
<g>
</g>
<g>
</g>
<g>
</g>
<g>
</g>
<g>
</g>
<g>
</g>
<g>
</g>
</svg>
